<?xml version="1.0" encoding="UTF-8"?>
<svg version="1.1" xmlns="http://www.w3.org/2000/svg" width="107" height="60">
<path d="M0 0 C1.24265625 -0.06251953 2.4853125 -0.12503906 3.765625 -0.18945312 C12.18211234 -0.33594262 16.60512048 1.08191873 22.82226562 6.83227539 C23.37591797 7.40324951 23.92957031 7.97422363 24.5 8.5625 C25.16153076 8.12147949 25.82306152 7.68045898 26.50463867 7.22607422 C36.5 0.5625 36.5 0.5625 41.5 0.5625 C41.5 9.4725 41.5 18.3825 41.5 27.5625 C38.36217036 25.99358518 35.99160748 24.53939907 33.25 22.4375 C32.54359375 21.89867188 31.8371875 21.35984375 31.109375 20.8046875 C30.57828125 20.39476563 30.0471875 19.98484375 29.5 19.5625 C27.85 20.5525 26.2 21.5425 24.5 22.5625 C23.51 21.9025 22.52 21.2425 21.5 20.5625 C17.81252398 20.85963133 15.55868758 22.8532674 12.75 25.125 C11.55117188 26.08599609 11.55117188 26.08599609 10.328125 27.06640625 C9.72484375 27.56011719 9.1215625 28.05382812 8.5 28.5625 C7.84 27.2425 7.18 25.9225 6.5 24.5625 C5.901875 25.201875 5.30375 25.84125 4.6875 26.5 C1.51959868 29.48687838 -0.98953471 29.68677048 -5.16796875 29.66015625 C-6.06064453 29.65693359 -6.95332031 29.65371094 -7.87304688 29.65039062 C-9.26620117 29.63782227 -9.26620117 29.63782227 -10.6875 29.625 C-11.62787109 29.62048828 -12.56824219 29.61597656 -13.53710938 29.61132812 C-15.85813712 29.59954626 -18.17903644 29.58309558 -20.5 29.5625 C-20.64601614 26.02127173 -20.7343056 22.48082356 -20.8125 18.9375 C-20.85439453 17.93847656 -20.89628906 16.93945312 -20.93945312 15.91015625 C-21.07759825 7.56619078 -21.07759825 7.56619078 -18.10546875 3.9140625 C-12.81155414 -0.86395339 -6.85907417 0.14926123 0 0 Z M6.5 3.5625 C5.860625 4.201875 5.22125 4.84125 4.5625 5.5 C1.40496087 8.65753913 -0.76490114 8.77010823 -5.125 9.125 C-6.12789062 9.20878906 -7.13078125 9.29257812 -8.1640625 9.37890625 C-8.93492188 9.43949219 -9.70578125 9.50007813 -10.5 9.5625 C-10.5 9.8925 -10.5 10.2225 -10.5 10.5625 C-4.56 10.5625 1.38 10.5625 7.5 10.5625 C7.5 8.2525 7.5 5.9425 7.5 3.5625 C7.17 3.5625 6.84 3.5625 6.5 3.5625 Z M-11.5 12.5625 C-11.5 15.2025 -11.5 17.8425 -11.5 20.5625 C-8.86 20.5625 -6.22 20.5625 -3.5 20.5625 C-4.263125 19.799375 -5.02625 19.03625 -5.8125 18.25 C-7.70833333 16.35416667 -9.60416667 14.45833333 -11.5 12.5625 Z " fill="#0A5ADB" transform="translate(41.5,7.4375)"/>
<path d="M0 0 C1.24265625 -0.06251953 2.4853125 -0.12503906 3.765625 -0.18945312 C12.18211234 -0.33594262 16.60512048 1.08191873 22.82226562 6.83227539 C23.37591797 7.40324951 23.92957031 7.97422363 24.5 8.5625 C25.16153076 8.12147949 25.82306152 7.68045898 26.50463867 7.22607422 C36.875 0.3125 36.875 0.3125 41.5 0.5625 C41.5 2.8725 41.5 5.1825 41.5 7.5625 C40.51 7.76875 39.52 7.975 38.5 8.1875 C34.35375536 9.32288139 31.60090302 11.62953546 28.39453125 14.41796875 C26.5 15.5625 26.5 15.5625 24.46875 15.39453125 C22.38616516 14.51439123 20.93114378 13.49403571 19.1875 12.0625 C15.60749881 9.37362465 12.9308441 8.83377617 8.5 8.5625 C8.17 6.9125 7.84 5.2625 7.5 3.5625 C7.00628906 3.88347656 6.51257813 4.20445313 6.00390625 4.53515625 C1.93194247 6.20586838 -2.39584078 5.95926603 -6.74414062 6.04101562 C-9.56684528 6.14847235 -11.93538526 6.2644464 -14.4609375 7.59765625 C-16.1295902 10.75304088 -15.99725774 14.07048578 -16.0625 17.5625 C-16.24550069 25.18075104 -16.24550069 25.18075104 -18.5 28.5625 C-19.16 28.5625 -19.82 28.5625 -20.5 28.5625 C-20.64611313 25.18796102 -20.73433467 21.81424234 -20.8125 18.4375 C-20.8753418 17.01050781 -20.8753418 17.01050781 -20.93945312 15.5546875 C-21.07759974 7.59744261 -21.07759974 7.59744261 -18.10546875 3.9453125 C-12.83064688 -0.87873749 -6.86967316 0.14949188 0 0 Z " fill="#0E94AB" transform="translate(41.5,7.4375)"/>
<path d="M0 0 C6.34575432 0.22663408 9.41097816 1.57926554 14.140625 5.8203125 C15.91471138 7.20194797 15.91471138 7.20194797 17.9921875 6.87109375 C21.05043736 5.5442655 23.29501507 3.43647489 25.8046875 1.27734375 C28 0 28 0 34 0 C34 6.6 34 13.2 34 20 C30.86217036 18.43108518 28.49160748 16.97689907 25.75 14.875 C25.04359375 14.33617187 24.3371875 13.79734375 23.609375 13.2421875 C23.07828125 12.83226562 22.5471875 12.42234375 22 12 C20.35 12.99 18.7 13.98 17 15 C16.01 14.34 15.02 13.68 14 13 C10.31659381 13.29619143 8.10434631 15.27826211 5.3125 17.5625 C1.08651911 21 1.08651911 21 0 21 C-1.25818438 13.87028851 -0.71148265 7.18050184 0 0 Z " fill="#034C88" transform="translate(49,15)"/>
<path d="M0 0 C1.98 0 3.96 0 6 0 C6 0.99 6 1.98 6 3 C6.94875 2.95875 7.8975 2.9175 8.875 2.875 C12 3 12 3 14 5 C14 6.98 14 8.96 14 11 C2.45 11 -9.1 11 -21 11 C-21.33 9.68 -21.66 8.36 -22 7 C-22.33 8.32 -22.66 9.64 -23 11 C-23.99 11 -24.98 11 -26 11 C-26 8.36 -26 5.72 -26 3 C-17.42 3 -8.84 3 0 3 C0 2.01 0 1.02 0 0 Z M-2 6 C-2 6.66 -2 7.32 -2 8 C-1.34 8 -0.68 8 0 8 C0 7.34 0 6.68 0 6 C-0.66 6 -1.32 6 -2 6 Z " fill="#D4D4D4" transform="translate(79,41)"/>
<path d="M0 0 C0.94101562 0.00322266 1.88203125 0.00644531 2.8515625 0.00976562 C3.83640625 0.01814453 4.82125 0.02652344 5.8359375 0.03515625 C6.82851563 0.03966797 7.82109375 0.04417969 8.84375 0.04882812 C11.2995391 0.0606348 13.75520854 0.07710225 16.2109375 0.09765625 C16.2109375 1.08765625 16.2109375 2.07765625 16.2109375 3.09765625 C11.87823916 5.9144758 6.94527217 5.48257476 1.96679688 5.57617188 C-0.85590778 5.6836286 -3.22444776 5.79960265 -5.75 7.1328125 C-7.4186527 10.28819713 -7.28632024 13.60564203 -7.3515625 17.09765625 C-7.53456319 24.71590729 -7.53456319 24.71590729 -9.7890625 28.09765625 C-10.4490625 28.09765625 -11.1090625 28.09765625 -11.7890625 28.09765625 C-11.93517563 24.72311727 -12.02339717 21.34939859 -12.1015625 17.97265625 C-12.1644043 16.54566406 -12.1644043 16.54566406 -12.22851562 15.08984375 C-12.36666224 7.13259886 -12.36666224 7.13259886 -9.39453125 3.48046875 C-5.95962429 0.33909957 -4.52324633 -0.02724847 0 0 Z " fill="#35BDC5" transform="translate(32.7890625,7.90234375)"/>
<path d="M0 0 C1.2463623 0.01047363 2.49272461 0.02094727 3.77685547 0.03173828 C4.77143265 0.03598312 4.77143265 0.03598312 5.78610229 0.04031372 C7.9055988 0.05151643 10.02467401 0.07662027 12.14404297 0.10205078 C13.58023479 0.11208051 15.01643322 0.12120637 16.45263672 0.12939453 C19.97490925 0.15145578 23.496935 0.18598585 27.01904297 0.22705078 C27.01904297 2.86705078 27.01904297 5.50705078 27.01904297 8.22705078 C26.35904297 8.22705078 25.69904297 8.22705078 25.01904297 8.22705078 C25.01904297 6.24705078 25.01904297 4.26705078 25.01904297 2.22705078 C24.02904297 2.72205078 24.02904297 2.72205078 23.01904297 3.22705078 C22.36349178 5.75438313 22.36349178 5.75438313 22.01904297 8.22705078 C21.35904297 8.22705078 20.69904297 8.22705078 20.01904297 8.22705078 C19.68904297 6.24705078 19.35904297 4.26705078 19.01904297 2.22705078 C18.68904297 2.22705078 18.35904297 2.22705078 18.01904297 2.22705078 C17.68904297 4.20705078 17.35904297 6.18705078 17.01904297 8.22705078 C14.04904297 8.22705078 11.07904297 8.22705078 8.01904297 8.22705078 C7.68904297 6.90705078 7.35904297 5.58705078 7.01904297 4.22705078 C8.33904297 3.89705078 9.65904297 3.56705078 11.01904297 3.22705078 C9.36904297 2.89705078 7.71904297 2.56705078 6.01904297 2.22705078 C6.01904297 4.20705078 6.01904297 6.18705078 6.01904297 8.22705078 C5.02904297 8.22705078 4.03904297 8.22705078 3.01904297 8.22705078 C3.01904297 8.88705078 3.01904297 9.54705078 3.01904297 10.22705078 C-1.73095703 11.35205078 -1.73095703 11.35205078 -3.98095703 10.22705078 C-3.98095703 8.90705078 -3.98095703 7.58705078 -3.98095703 6.22705078 C-4.18720703 5.52580078 -4.39345703 4.82455078 -4.60595703 4.10205078 C-4.72970703 3.48330078 -4.85345703 2.86455078 -4.98095703 2.22705078 C-2.98095703 0.22705078 -2.98095703 0.22705078 0 0 Z M-0.98095703 1.22705078 C-1.97095703 2.71205078 -1.97095703 2.71205078 -2.98095703 4.22705078 C-1.66095703 4.55705078 -0.34095703 4.88705078 1.01904297 5.22705078 C1.01904297 4.23705078 1.01904297 3.24705078 1.01904297 2.22705078 C0.35904297 1.89705078 -0.30095703 1.56705078 -0.98095703 1.22705078 Z M10.01904297 4.22705078 C10.01904297 4.88705078 10.01904297 5.54705078 10.01904297 6.22705078 C10.67904297 6.22705078 11.33904297 6.22705078 12.01904297 6.22705078 C12.01904297 5.56705078 12.01904297 4.90705078 12.01904297 4.22705078 C11.35904297 4.22705078 10.69904297 4.22705078 10.01904297 4.22705078 Z " fill="#D2D2D2" transform="translate(23.98095703125,43.77294921875)"/>
<path d="M0 0 C0 6.93 0 13.86 0 21 C-6 19 -6 19 -8 18 C-8 13.05 -8 8.1 -8 3 C-2 0 -2 0 0 0 Z " fill="#768EF2" transform="translate(92,11)"/>
<path d="M0 0 C3 2 3 2 4 4 C6.35599235 4.46751788 6.35599235 4.46751788 9.0625 4.625 C9.98160156 4.69976563 10.90070312 4.77453125 11.84765625 4.8515625 C12.55792969 4.90054687 13.26820312 4.94953125 14 5 C14.36468886 11.44283647 14.36468886 11.44283647 12.875 13.71875 C10.1629604 15.57197706 8.05676436 15.29215369 4.8125 15.1875 C3.72582031 15.16042969 2.63914063 15.13335937 1.51953125 15.10546875 C0.27236328 15.05326172 0.27236328 15.05326172 -1 15 C-1.02685412 12.68756208 -1.04632841 10.3750373 -1.0625 8.0625 C-1.07410156 6.77472656 -1.08570312 5.48695312 -1.09765625 4.16015625 C-1 1 -1 1 0 0 Z M0 3 C0 5.64 0 8.28 0 11 C2.64 11 5.28 11 8 11 C7.236875 10.236875 6.47375 9.47375 5.6875 8.6875 C3.79166667 6.79166667 1.89583333 4.89583333 0 3 Z " fill="#0639A5" transform="translate(30,17)"/>
<path d="M0 0 C6.14689273 0.36881356 8.69027374 1.90050429 13 6 C9.29950632 9.92476602 5.48018862 12.98448843 1 16 C0.67 16 0.34 16 0 16 C-0.91397824 10.31302429 -0.91397824 5.68697571 0 0 Z " fill="#003278" transform="translate(49,20)"/>
<path d="M0 0 C0 4.95 0 9.9 0 15 C-3.19892281 13.4005386 -5.15353735 12.17187081 -7.75 9.875 C-8.36359375 9.33617187 -8.9771875 8.79734375 -9.609375 8.2421875 C-10.06828125 7.83226562 -10.5271875 7.42234375 -11 7 C-9.2417258 1.7251774 -5.34498543 0 0 0 Z " fill="#024986" transform="translate(83,20)"/>
<path d="M0 0 C1.48831242 0.00667405 2.97660807 0.01863442 4.46484375 0.03515625 C5.22345703 0.03966797 5.98207031 0.04417969 6.76367188 0.04882812 C8.64326246 0.06064945 10.52281274 0.07858547 12.40234375 0.09765625 C12.40234375 3.39765625 12.40234375 6.69765625 12.40234375 10.09765625 C11.08234375 10.09765625 9.76234375 10.09765625 8.40234375 10.09765625 C8.40234375 8.11765625 8.40234375 6.13765625 8.40234375 4.09765625 C7.24605469 4.14986328 7.24605469 4.14986328 6.06640625 4.203125 C5.06351563 4.23019531 4.060625 4.25726562 3.02734375 4.28515625 C1.53074219 4.33736328 1.53074219 4.33736328 0.00390625 4.390625 C-0.85460938 4.29394531 -1.713125 4.19726562 -2.59765625 4.09765625 C-3.25765625 3.10765625 -3.91765625 2.11765625 -4.59765625 1.09765625 C-3.59765625 0.09765625 -3.59765625 0.09765625 0 0 Z " fill="#7B72EE" transform="translate(36.59765625,17.90234375)"/>
<path d="M0 0 C0 2.31 0 4.62 0 7 C-1.5778125 7.433125 -1.5778125 7.433125 -3.1875 7.875 C-6.87975538 8.86834224 -6.87975538 8.86834224 -9.75 10.25 C-10.4925 10.4975 -11.235 10.745 -12 11 C-12.99 10.34 -13.98 9.68 -15 9 C-11.15007802 3.6693388 -7.00012355 -0.82354395 0 0 Z " fill="#129EAD" transform="translate(83,8)"/>
<path d="M0 0 C1.93742341 -0.02703381 3.87495479 -0.04641125 5.8125 -0.0625 C6.89144531 -0.07410156 7.97039063 -0.08570313 9.08203125 -0.09765625 C12 0 12 0 15 1 C15 1.66 15 2.32 15 3 C13.68 3 12.36 3 11 3 C11 4.65 11 6.3 11 8 C9.02 8 7.04 8 5 8 C4.67 6.68 4.34 5.36 4 4 C3.67 5.32 3.34 6.64 3 8 C2.01 8 1.02 8 0 8 C0 5.36 0 2.72 0 0 Z " fill="#D0D0D0" transform="translate(53,44)"/>
<path d="M0 0 C0.66 0.33 1.32 0.66 2 1 C-2.08064489 5.21666639 -4.09117698 6.11605351 -9.9375 6.5625 C-10.99839844 6.64628906 -12.05929688 6.73007812 -13.15234375 6.81640625 C-15.09848246 6.94187747 -17.0498208 7 -19 7 C-19.33 6.01 -19.66 5.02 -20 4 C-16.28670686 1.52447124 -13.18592319 1.59281446 -8.875 1.4375 C-4.05191515 1.67176235 -4.05191515 1.67176235 0 0 Z " fill="#4C65DF" transform="translate(46,11)"/>
<path d="M0 0 C2.64 0 5.28 0 8 0 C8 3.3 8 6.6 8 10 C2.25 8.125 2.25 8.125 0 7 C0 4.69 0 2.38 0 0 Z " fill="#6DA9EC" transform="translate(84,22)"/>
<path d="M0 0 C0 1.65 0 3.3 0 5 C-9.41002278 8.62870159 -9.41002278 8.62870159 -14 7 C-6.88621076 -0.30605381 -6.88621076 -0.30605381 0 0 Z " fill="#086F9D" transform="translate(83,15)"/>
<path d="M0 0 C6.64584719 0.34978143 9.83664827 1.80477672 15 6 C13.68 6.99 12.36 7.98 11 9 C10.2265625 8.566875 10.2265625 8.566875 9.4375 8.125 C6.37643275 6.71219973 3.25055082 5.8751483 0 5 C0 3.35 0 1.7 0 0 Z " fill="#0B799F" transform="translate(49,15)"/>
<path d="M0 0 C3.25 -0.3125 3.25 -0.3125 7 0 C9.4375 2.5 9.4375 2.5 11 5 C8.24075815 6.80411967 7.11027897 7.0127245 3.75 6.625 C2.8425 6.41875 1.935 6.2125 1 6 C0.67 4.02 0.34 2.04 0 0 Z " fill="#23ABA6" transform="translate(49,8)"/>
<path d="M0 0 C0.66 0 1.32 0 2 0 C2 0.99 2 1.98 2 3 C2.99 3 3.98 3 5 3 C5.66 2.34 6.32 1.68 7 1 C7 3.64 7 6.28 7 9 C2.25 10.125 2.25 10.125 0 9 C0 7.68 0 6.36 0 5 C-0.185625 4.278125 -0.37125 3.55625 -0.5625 2.8125 C-0.706875 2.214375 -0.85125 1.61625 -1 1 C-0.67 0.67 -0.34 0.34 0 0 Z " fill="#D3D3D3" transform="translate(20,45)"/>
<path d="M0 0 C0.8125 3.25 0.8125 3.25 1 7 C-1.375 9.4375 -1.375 9.4375 -4 11 C-4.33 11 -4.66 11 -5 11 C-5.36637589 4.64948454 -5.36637589 4.64948454 -3.625 1.5625 C-2 0 -2 0 0 0 Z " fill="#076C92" transform="translate(54,25)"/>
<path d="M0 0 C-0.33 3.63 -0.66 7.26 -1 11 C-2.98 9.35 -4.96 7.7 -7 6 C-5.81636731 2.44910192 -3.99368042 0 0 0 Z " fill="#00346F" transform="translate(79,21)"/>
<path d="M0 0 C0.33 0 0.66 0 1 0 C1 1.98 1 3.96 1 6 C1.99 6 2.98 6 4 6 C3.75 8.375 3.75 8.375 3 11 C0.9375 12.3125 0.9375 12.3125 -1 13 C-1.66 11.68 -2.32 10.36 -3 9 C-2.34 8.34 -1.68 7.68 -1 7 C-0.59952556 4.67724823 -0.2602896 2.34260643 0 0 Z " fill="#4061D9" transform="translate(44,22)"/>
<path d="M0 0 C1.66611905 -0.042721 3.33382885 -0.04063832 5 0 C6 1 6 1 6.0625 4.0625 C6.041875 5.031875 6.02125 6.00125 6 7 C4.02 7 2.04 7 0 7 C0 4.66666667 0 2.33333333 0 0 Z " fill="#EFEFEF" transform="translate(86,44)"/>
<path d="M0 0 C1.65 0 3.3 0 5 0 C5.33 2.31 5.66 4.62 6 7 C5.67 6.34 5.34 5.68 5 5 C3.68 6.32 2.36 7.64 1 9 C0.34 8.67 -0.32 8.34 -1 8 C-0.67 5.36 -0.34 2.72 0 0 Z " fill="#024482" transform="translate(49,20)"/>
<path d="M0 0 C0.33 0 0.66 0 1 0 C1 2.97 1 5.94 1 9 C-1.31 9 -3.62 9 -6 9 C-6.33 7.35 -6.66 5.7 -7 4 C-6.01 4.33 -5.02 4.66 -4 5 C-4 5.99 -4 6.98 -4 8 C-3.34 7.67 -2.68 7.34 -2 7 C-1.67 6.01 -1.34 5.02 -1 4 C-1.99 3.67 -2.98 3.34 -4 3 C-2.68 3 -1.36 3 0 3 C0 2.01 0 1.02 0 0 Z " fill="#F6F6F6" transform="translate(80,42)"/>
<path d="M0 0 C4.95 0 9.9 0 15 0 C15.33 0.66 15.66 1.32 16 2 C14.02 2.99 14.02 2.99 12 4 C12 3.34 12 2.68 12 2 C8.37 2.33 4.74 2.66 1 3 C0.67 2.01 0.34 1.02 0 0 Z " fill="#045C96" transform="translate(59,22)"/>
<path d="M0 0 C0 0.99 0 1.98 0 3 C-1.3303125 3.433125 -1.3303125 3.433125 -2.6875 3.875 C-5.50382424 4.83148748 -8.25083156 5.86798946 -11 7 C-8.1177836 1.78456079 -6.12393015 -0.33102325 0 0 Z " fill="#23B3AE" transform="translate(83,8)"/>
<path d="M0 0 C0 2.31 0 4.62 0 7 C-0.33 6.01 -0.66 5.02 -1 4 C-2.98 4 -4.96 4 -7 4 C-7 6.31 -7 8.62 -7 11 C-7.33 11 -7.66 11 -8 11 C-8 8.36 -8 5.72 -8 3 C-2.25 0 -2.25 0 0 0 Z " fill="#7662E0" transform="translate(92,11)"/>
<path d="M0 0 C0.66 0.33 1.32 0.66 2 1 C0.5 3 0.5 3 -2 5 C-4.75871627 5.35800135 -7.20097524 5.18660165 -10 5 C-10 4.34 -10 3.68 -10 3 C-9.04287109 2.80083984 -9.04287109 2.80083984 -8.06640625 2.59765625 C-7.24011719 2.42105469 -6.41382813 2.24445312 -5.5625 2.0625 C-4.73878906 1.88847656 -3.91507813 1.71445313 -3.06640625 1.53515625 C-1.02338796 1.19247006 -1.02338796 1.19247006 0 0 Z " fill="#8871E4" transform="translate(46,11)"/>
<path d="M0 0 C0 1.65 0 3.3 0 5 C-0.556875 4.855625 -1.11375 4.71125 -1.6875 4.5625 C-4.11384195 3.97230872 -6.54906345 3.476571 -9 3 C-6.38997624 -0.48003168 -4.1689578 -0.27793052 0 0 Z " fill="#0C81A1" transform="translate(83,15)"/>
<path d="M0 0 C3.93846154 4.30769231 3.93846154 4.30769231 4.25 7.8125 C4.1675 8.534375 4.085 9.25625 4 10 C2.68 9.34 1.36 8.68 0 8 C0 5.36 0 2.72 0 0 Z " fill="#06668F" transform="translate(79,25)"/>
<path d="M0 0 C2.05078125 0.03255208 4.1015625 0.06510417 6.15234375 0.09765625 C5.49234375 0.75765625 4.83234375 1.41765625 4.15234375 2.09765625 C4.48234375 2.75765625 4.81234375 3.41765625 5.15234375 4.09765625 C2.27734375 4.28515625 2.27734375 4.28515625 -0.84765625 4.09765625 C-1.50765625 3.10765625 -2.16765625 2.11765625 -2.84765625 1.09765625 C-1.84765625 0.09765625 -1.84765625 0.09765625 0 0 Z " fill="#4F6AE7" transform="translate(34.84765625,17.90234375)"/>
<path d="M0 0 C2.38602535 1.59068356 4.01335633 3.01335633 6 5 C6.66 5.33 7.32 5.66 8 6 C8 6.66 8 7.32 8 8 C3.25 7.25 3.25 7.25 1 5 C1 4.01 1 3.02 1 2 C0.34 1.67 -0.32 1.34 -1 1 C-0.67 0.67 -0.34 0.34 0 0 Z " fill="#124FB5" transform="translate(30,17)"/>
<path d="M0 0 C0.66 0.33 1.32 0.66 2 1 C1.67 1.99 1.34 2.98 1 4 C0.34 3.67 -0.32 3.34 -1 3 C-0.01 4.32 0.98 5.64 2 7 C0.35 7 -1.3 7 -3 7 C-3.33 5.68 -3.66 4.36 -4 3 C-2.68 2.67 -1.36 2.34 0 2 C0 1.34 0 0.68 0 0 Z " fill="#9F9F9F" transform="translate(35,45)"/>
<path d="M0 0 C2.97 0 5.94 0 9 0 C6 3 6 3 2.8125 3.1875 C1.4203125 3.0946875 1.4203125 3.0946875 0 3 C0 2.01 0 1.02 0 0 Z " fill="#064FC0" transform="translate(30,28)"/>
<path d="M0 0 C6.0546875 -0.1953125 6.0546875 -0.1953125 8 0 C8.66 0.66 9.32 1.32 10 2 C8.02 2.66 6.04 3.32 4 4 C2.68 2.68 1.36 1.36 0 0 Z " fill="#0B6A98" transform="translate(54,20)"/>
<path d="M0 0 C4.55384615 -0.36923077 4.55384615 -0.36923077 6.8125 1.5 C7.204375 1.995 7.59625 2.49 8 3 C4.71023192 4.09658936 3.28696233 3.79953138 0 3 C0 2.01 0 1.02 0 0 Z " fill="#13ADB1" transform="translate(50,11)"/>
<path d="M0 0 C0.33 0.99 0.66 1.98 1 3 C-3.75 4.125 -3.75 4.125 -6 3 C-6 2.34 -6 1.68 -6 1 C-4 0 -4 0 0 0 Z " fill="#888888" transform="translate(26,51)"/>
<path d="M0 0 C0 2.31 0 4.62 0 7 C-0.99 7 -1.98 7 -3 7 C-3 5.02 -3 3.04 -3 1 C-1 0 -1 0 0 0 Z " fill="#A0A0A0" transform="translate(41,45)"/>
<path d="M0 0 C0.99 0.33 1.98 0.66 3 1 C3.99 1 4.98 1 6 1 C5.34 2.32 4.68 3.64 4 5 C1.525 4.01 1.525 4.01 -1 3 C-0.67 2.01 -0.34 1.02 0 0 Z " fill="#118B9E" transform="translate(64,15)"/>
<path d="M0 0 C1.98 0 3.96 0 6 0 C6 1.32 6 2.64 6 4 C4.02 3.34 2.04 2.68 0 2 C0 1.34 0 0.68 0 0 Z " fill="#59BED5" transform="translate(86,28)"/>
<path d="M0 0 C2.64 0 5.28 0 8 0 C8 0.66 8 1.32 8 2 C5.36 2.33 2.72 2.66 0 3 C0 2.01 0 1.02 0 0 Z " fill="#5FB2E8" transform="translate(84,26)"/>
<path d="M0 0 C0.66 0 1.32 0 2 0 C2.33 2.31 2.66 4.62 3 7 C2.67 5.68 2.34 4.36 2 3 C0.35 3.66 -1.3 4.32 -3 5 C-1.625 2.5 -1.625 2.5 0 0 Z " fill="#03588F" transform="translate(52,25)"/>
<path d="M0 0 C1.98 0 3.96 0 6 0 C6 0.99 6 1.98 6 3 C4.02 3 2.04 3 0 3 C0 2.01 0 1.02 0 0 Z " fill="#7F77F8" transform="translate(85,15)"/>
<path d="M0 0 C-0.33 0.99 -0.66 1.98 -1 3 C-3.31 3 -5.62 3 -8 3 C-5.53387212 -0.1151089 -3.89156016 -0.31553191 0 0 Z " fill="#14ACB0" transform="translate(83,11)"/>
<path d="M0 0 C3.36591866 1.44253657 5.51047079 3.33264727 8 6 C5.69 5.34 3.38 4.68 1 4 C0.67 2.68 0.34 1.36 0 0 Z " fill="#01305F" transform="translate(54,21)"/>
</svg>
