<svg width="69" height="69" viewBox="0 0 69 69" fill="none" xmlns="http://www.w3.org/2000/svg">
<circle cx="34.5" cy="34.5" r="34.5" fill="#CB594C"/>
<path d="M52.3772 48.4722L44.3943 36.6686C44.2064 36.3875 43.9247 36.1065 43.6429 35.9191L42.9855 35.4507C42.2342 34.8887 42.2342 33.8582 42.9855 33.2961L43.549 32.9214C43.8308 32.734 44.1125 32.453 44.3003 32.172L52.4711 20.5557C53.1286 19.5253 53.2225 18.2138 52.4711 17.277C51.532 16.0591 49.8414 15.7781 48.6205 16.6212L36.787 24.584C36.5052 24.7713 36.2235 25.0523 36.0356 25.3334L35.5661 25.9891C35.0026 26.7386 33.9695 26.7386 33.406 25.9891L33.0303 25.4271C32.8425 25.146 32.5607 24.865 32.279 24.6776L20.6332 16.5275C19.6001 15.8718 18.2853 15.7781 17.3461 16.5275C16.1252 17.4643 15.8435 19.1506 16.6887 20.3684L24.6717 32.172C24.8595 32.453 25.1413 32.734 25.423 32.9214L26.0804 33.3898C26.8318 33.9519 26.8318 34.9824 26.0804 35.5444L25.5169 35.9191C25.2352 36.1065 24.9534 36.3875 24.7656 36.6686L16.5009 48.3785C15.7496 49.5026 15.8435 51.0015 16.7826 51.9383C17.7218 52.8751 19.2245 53.0625 20.3515 52.313L32.185 44.3503C32.4668 44.1629 32.7485 43.8819 32.9364 43.6008L33.406 42.9451C33.9695 42.1957 35.0026 42.1957 35.5661 42.9451L35.9417 43.5072C36.1296 43.7882 36.4113 44.0692 36.6931 44.2566L48.5266 52.5004C49.6536 53.2498 51.1563 53.1561 52.0955 52.2193C53.0346 51.0952 53.1285 49.5963 52.3772 48.4722Z" fill="#141414"/>
</svg>
