<svg width="40" height="40" viewBox="0 0 40 40" fill="none" xmlns="http://www.w3.org/2000/svg">
<path d="M38.7333 34.6631L30.2333 22.0631C30.0333 21.7631 29.7333 21.4631 29.4333 21.2631L28.7333 20.7631C27.9333 20.1631 27.9333 19.0631 28.7333 18.4631L29.3333 18.0631C29.6333 17.8631 29.9333 17.5631 30.1333 17.2631L38.8333 4.86313C39.5333 3.76313 39.6333 2.36313 38.8333 1.36313C37.8333 0.0631267 36.0333 -0.23687 34.7333 0.66313L22.1333 9.16313C21.8333 9.36313 21.5333 9.66313 21.3333 9.96313L20.8333 10.6631C20.2333 11.4631 19.1333 11.4631 18.5333 10.6631L18.1333 10.0631C17.9333 9.76312 17.6333 9.46313 17.3333 9.26313L4.93333 0.563124C3.83333 -0.136876 2.43333 -0.236876 1.43333 0.563124C0.133326 1.56312 -0.166671 3.36313 0.733329 4.66313L9.23333 17.2631C9.43333 17.5631 9.73333 17.8631 10.0333 18.0631L10.7333 18.5631C11.5333 19.1631 11.5333 20.2631 10.7333 20.8631L10.1333 21.2631C9.83332 21.4631 9.53333 21.7631 9.33333 22.0631L0.533332 34.5631C-0.266668 35.7631 -0.166665 37.3631 0.833335 38.3631C1.83334 39.3631 3.43332 39.5631 4.63332 38.7631L17.2333 30.2631C17.5333 30.0631 17.8333 29.7631 18.0333 29.4631L18.5333 28.7631C19.1333 27.9631 20.2333 27.9631 20.8333 28.7631L21.2333 29.3631C21.4333 29.6631 21.7333 29.9631 22.0333 30.1631L34.6333 38.9631C35.8333 39.7631 37.4333 39.6631 38.4333 38.6631C39.4333 37.4631 39.5333 35.8631 38.7333 34.6631Z" fill="#CB594C"/>
</svg>
